<svg width="37" height="35" viewBox="0 0 37 35" fill="none" xmlns="http://www.w3.org/2000/svg">
<path d="M32.8889 0H4.11111C1.83972 0 0 1.70518 0 3.81046V30.4837C0 32.5889 1.83972 34.2941 4.11111 34.2941H32.8889C35.1603 34.2941 37 32.5889 37 30.4837V3.81046C37 1.70518 35.1603 0 32.8889 0ZM12.3333 26.6732H7.14717V13.3366H12.3333V26.6732ZM9.64878 10.8922C8.06394 10.8922 7.00533 9.91291 7.00533 8.60592C7.00533 7.29893 8.06189 6.31964 9.8235 6.31964C11.4083 6.31964 12.4669 7.29893 12.4669 8.60592C12.4669 9.91291 11.4104 10.8922 9.64878 10.8922ZM30.8333 26.6732H25.8137V19.3838C25.8137 17.3681 24.4755 16.9032 23.9739 16.9032C23.4724 16.9032 21.7992 17.2137 21.7992 19.3838C21.7992 19.6943 21.7992 26.6732 21.7992 26.6732H16.613V13.3366H21.7992V15.198C22.4672 14.112 23.8054 13.3366 26.3152 13.3366C28.8251 13.3366 30.8333 15.198 30.8333 19.3838V26.6732Z" fill="white"/>
</svg>
