<?xml version="1.0" encoding="UTF-8"?><svg id="Calque_1" xmlns="http://www.w3.org/2000/svg" viewBox="0 0 888 618.11"><defs><style>.cls-1{fill:#2f2e41;}.cls-2{fill:#fff;}.cls-3{fill:#ff8080;}.cls-4{fill:#3f3d56;}.cls-5{fill:#9f616a;}.cls-6{fill:#04b0a2;}.cls-7{fill:#08b0a3;}.cls-8{fill:#e6e6e6;}.cls-9{fill:#ffb9b9;}.cls-10{isolation:isolate;opacity:.2;}.cls-11{fill:#6c63ff;}.cls-12{fill:#10b1a3;}.cls-13{fill:#0ab1a3;}.cls-14{fill:#00b0a2;}</style></defs><path class="cls-1" d="m741.96,95.04l-68.5.67c-3.22-15.85-14.04-57.44-4.3-68.79.92-8.87,8.66-15.44,17.56-14.92h0c10.62-16.62,28.3-14.12,40.26-3.74,12.03,4.15,16.56,11.52,14.98,21.53,8.91,7.8,10.55,17.29,6.55,28.08l-6.55,37.17Z"/><path class="cls-9" d="m735.36,137.24l-49.42-6.84-9.88-14.45c13.62-9.03,18.43-21.65,12.17-38.78l34.22-.76c-1.6,15.26,3.44,27.07,17.49,34.22l-4.56,26.61Z"/><path class="cls-8" d="m674.26,583.02l-1.89,25.84c-.33,4.53,3.07,8.47,7.6,8.8.37.03.73.03,1.1,0l13.27-.8c2.31-.14,4.07-2.13,3.93-4.44-.02-.26-.05-.51-.12-.76l-7.37-29.46-16.53.83Z"/><path class="cls-8" d="m717.22,582.19l-7.37,29.46c-.56,2.25.8,4.53,3.05,5.09.25.06.51.1.76.12l13.27.8c4.53.27,8.43-3.18,8.71-7.71.02-.37.02-.73,0-1.1l-1.89-25.84-16.53-.83Z"/><polygon class="cls-7" points="734.6 586.61 716.69 584.81 698.87 394.24 692.13 584.2 674.53 583.57 644.88 320.48 758.17 320.48 734.6 586.61"/><circle class="cls-9" cx="707.23" cy="55.12" r="34.22"/><path class="cls-7" d="m774.9,326.57l-138.38,1.52c20.54-78.18,32.82-150.8,11.41-200.73l34.22-16.73c16.5,17.21,34.87,15.43,54.74-1.52l32.69,8.36c-5.6,65.47-3.09,135.59,5.32,209.09Z"/><path class="cls-9" d="m598.5,245.97l85.92,34.22,19.21,5.65c3.52,1.04,7.21-.98,8.25-4.5.03-.09.05-.18.07-.26h0c.79-3.15-.81-6.4-3.78-7.7l-19.95-6.11-60.07-34.98,12.55-33.08-26.23-14.07-15.97,60.83Z"/><path class="cls-7" d="m599.26,183.62c16.35,6.38,29.35,17.26,39.54,31.93l31.93-46.38-22.81-41.82-48.66,56.27Z"/><path class="cls-1" d="m745.79,49.58c-13.89-3.58-27.54-4.07-40.81.47-8.45,4.09-18.61,3.72-29.9.34V16.26l60.96,1.63,9.75,31.7Z"/><path class="cls-4" d="m684.13,206.11c-5.59,0-10.13,4.54-10.13,10.13l4,83.73c0,5.59,4.54,10.13,10.13,10.13h45.73c5.59,0,10.13-4.54,10.13-10.13l4-83.73c0-5.59-4.54-10.13-10.13-10.13h-53.73Z"/><path class="cls-9" d="m813.89,239.65l-74.89,29.82-5.65,2.25c-.18.07-.36.13-.55.19l-18.93,5.57c-2.42.71-5.77-2.55-7.73-4.8-2.01-2.24-2.07-5.61-.16-7.93.26-.3.55-.58.86-.83.73-.57,1.59-.95,2.5-1.1l18.91-3.72c.68-.13,1.33-.38,1.93-.72l8.82-5.14,45.79-26.66c2.63-1.53,3.77-4.74,2.69-7.58l-8.74-23.05c-1.11-2.92.12-6.2,2.87-7.68l14.48-7.76c3.02-1.62,6.78-.49,8.4,2.53.23.43.41.89.54,1.37l12.57,47.88c.8,3.04-.79,6.2-3.71,7.36Z"/><path class="cls-7" d="m818.24,175.26c-16.35,6.38-29.35,17.26-39.54,31.93l-31.93-46.38,22.81-43.34,48.66,57.79Z"/><path class="cls-2" d="m730,85.58c-14.97,6.23-30.66,5.97-47,0,4.75-8.11-2.35-14.47-6-22.66l61-1.81c-4.66,7.12-11.55,15.52-8,24.47Z"/><polygon class="cls-2" points="737.35 62.46 736.65 61.75 737.65 60.75 743.62 53.78 744.38 54.43 738.38 61.43 737.35 62.46"/><rect class="cls-2" x="675" y="57.2" width="1" height="7.81" transform="translate(196.11 540.92) rotate(-50.19)"/><rect class="cls-2" x="724.47" y="76.36" width="19.56" height="1" transform="translate(275.12 654.98) rotate(-57.52)"/><rect class="cls-2" x="678.25" y="67.08" width="1" height="19.56" transform="translate(64.85 376.42) rotate(-32.47)"/><path class="cls-2" d="m741,251.82v18.12l-6.31,2.51c-.2.08-.4.15-.61.21l-21.13,6.22c-2.7.79-6.44-2.85-8.63-5.36-2.24-2.5-2.31-6.26-.18-8.85.29-.34.61-.65.96-.93.81-.63,1.77-1.06,2.79-1.23l21.11-4.15c.76-.15,1.48-.42,2.15-.8l9.85-5.74Z"/><path class="cls-4" d="m750.14,187.2h-3.61c0-51.11-10.52-86.73-20.78-86.73l-.9-3.61c9.2,0,15.06,14.82,18.36,27.26,4.47,16.86,6.94,39.26,6.94,63.08Z"/><path class="cls-4" d="m667.02,174.55h-3.61c0-46.81,10.6-75.89,26.2-75.89l-.9,3.61c-10.79,0-21.68,22.35-21.68,72.27Z"/><circle class="cls-4" cx="748.33" cy="188.11" r="9.03"/><path class="cls-4" d="m652.57,196.24h-3.61c0-12.95,7.29-23.49,16.26-23.49v3.61c-6.97,0-12.65,8.92-12.65,19.88Z"/><path class="cls-4" d="m681.48,196.24h-3.61c0-10.96-5.67-19.88-12.65-19.88v-3.61c8.97,0,16.26,10.54,16.26,23.49Z"/><circle class="cls-4" cx="679.67" cy="197.14" r="3.61"/><circle class="cls-4" cx="650.76" cy="197.14" r="3.61"/><path class="cls-1" d="m215.27,75.7l-63.47,10.75c-3.25.55-6.39-1.44-7.27-4.61-4.59-16.55-14.17-38.14-4.86-48.98.99-9.47,9.25-16.49,18.76-15.93h0c11.34-17.75,30.22-15.08,42.99-4,12.85,4.43,17.69,12.31,15.99,22.99,5.55,4.86,8.46,10.33,9.07,16.33.59,6.76-1.76,13.45-6.45,18.35l-4.75,5.1Z"/><path class="cls-5" d="m205.4,125.66l-49.2-2.89c4.82-11.07,6.75-21.72,4.82-31.84h36.66c-.08,7.76,3.78,21.19,7.72,34.73Z"/><path class="cls-8" d="m146.18,580.29l-2.02,27.59c-.35,4.84,3.28,9.05,8.12,9.4.39.03.78.03,1.17,0l14.17-.86c2.47-.15,4.35-2.27,4.2-4.74-.02-.27-.06-.55-.13-.81l-7.87-31.46-17.65.88Z"/><path class="cls-8" d="m192.05,579.41l-7.87,31.46c-.6,2.4.86,4.83,3.26,5.43.27.07.54.11.81.13l14.17.86c4.84.29,9-3.39,9.3-8.23.02-.39.02-.78,0-1.17l-2.02-27.59-17.65-.88Z"/><polygon class="cls-6" points="210.62 584.12 191.5 582.2 172.46 378.7 165.26 581.54 146.48 580.87 114.81 299.94 235.79 299.94 210.62 584.12"/><circle class="cls-5" cx="180.32" cy="66.11" r="36.54"/><path class="cls-1" d="m221.5,48.65c-14.83-2.58-29.41-2.94-43.58.34-9.03,2.96-19.87,2.68-31.93.25v-24.64l65.09,1.17,10.42,22.88Z"/><path class="cls-2" d="m204.64,95.42c-15.98,6.65-32.74,6.38-50.19,0,5.08-8.66-2.51-15.45-6.41-24.2l65.14-1.94c-4.98,7.6-12.33,16.58-8.54,26.13Z"/><rect class="cls-2" x="145.94" y="65.12" width="1" height="8.34" transform="translate(-.54 137.43) rotate(-50.19)"/><rect class="cls-2" x="198.73" y="85.61" width="20.88" height="1" transform="translate(24.21 216.33) rotate(-57.52)"/><rect class="cls-2" x="149.41" y="75.67" width="1" height="20.88" transform="translate(-22.79 93.94) rotate(-32.47)"/><path class="cls-6" d="m110.86,232.75l-27.98-17.36,23.86-69.88c2.66-7.21,7.76-13.26,14.41-17.12l8.04-4.65.7,70.49-19.03,38.52Z"/><path class="cls-14" d="m231.79,266.68l-4.14-35.45c-.22-18.71,2.96-36.8,10.55-53.47l3.86-52.09-42.45-17.36c-.13.87-.24,1.73-.36,2.59l-19.89,9.95-19.4-4.41.11-6.2-38.59,17.36c12.76,59.33,5.8,120.94-16.14,193.71l50.84,13.9.42-24.41,45.31-3.24c.47,7.92.84,15.7,1.06,23.31,25.57,9.41,26.44,9.26,49.74-4.22-9.28-19.5-16.62-39.8-20.9-59.96Z"/><polygon class="cls-6" points="297.05 224.06 271 215.38 229.34 166.88 242.06 125.66 299.95 206.7 297.05 224.06"/><path class="cls-8" d="m215.42,261.61c.89,3.89,4.76,6.34,8.66,5.46l22.11-5.01-3.2-14.11-22.11,5.01c-3.9.88-6.34,4.76-5.46,8.66h0Z"/><path class="cls-6" d="m235.31,245.29l12.54,23.15c21.09-5.88,39.38-24.43,56.92-46.31l-4.82-15.44-29.91,7.72-34.73,30.87Z"/><polygon class="cls-8" points="71.79 172.66 95.87 176.96 150.9 255.21 121.66 248.33 71.79 172.66"/><path class="cls-4" d="m67.52,171.7c-1.13.02-2.03.95-2.02,2.08,0,.39.12.77.34,1.09l51.44,78.05c.29.44.73.75,1.24.87l23.93,5.63c1.1.26,2.2-.42,2.46-1.52.13-.57.02-1.17-.32-1.64l-56.48-80.3c-.31-.44-.78-.74-1.31-.84l-18.9-3.37c-.13-.02-.26-.03-.39-.03Z"/><path class="cls-8" d="m99.61,227.51l1.43,14.4,22.56-2.24c3.98-.39,6.88-3.94,6.49-7.91s-3.94-6.88-7.91-6.49l-22.56,2.24Z"/><path class="cls-11" d="m79.99,225.84c.07,10.22,8.37,18.47,18.59,18.48h3.71l2.7-22.51-22.36-8.05-2.64,12.07Z"/><polygon class="cls-2" points="211.4 71.78 210.69 71.07 211.76 70 218.14 62.56 218.9 63.21 212.49 70.68 211.4 71.78"/><path class="cls-8" d="m339,615.11h210v-254.72c0-13.49-13.29-24.46-29.61-24.46h-150.77c-16.33,0-29.61,10.97-29.61,24.46v254.72Z"/><path class="cls-2" d="m355,604.57h178v-215.9c0-11.43-11.26-20.73-25.1-20.73h-127.8c-13.84,0-25.1,9.3-25.1,20.73v215.9Z"/><path class="cls-4" d="m337.41,316.11c-5.19,0-9.41,3.49-9.41,7.78v22.44c0,4.29,4.22,7.78,9.41,7.78h213.17c5.19,0,9.41-3.49,9.41-7.78v-22.44c0-4.29-4.22-7.78-9.41-7.78h-213.17Z"/><path class="cls-4" d="m381.18,576.89c-5.07.01-9.18,4.12-9.2,9.2h0c.01,5.07,4.12,9.18,9.2,9.2h17.21v-18.39h-17.21Z"/><path class="cls-13" d="m414.19,576.89h-16.74v18.39h16.74c5.07-.01,9.18-4.12,9.2-9.2h0c-.01-5.07-4.12-9.18-9.2-9.2Z"/><path class="cls-10" d="m420.2,579.14c1.45,1.66,2.25,3.79,2.25,6h0c-.01,5.07-4.12,9.18-9.2,9.2h-15.8v.94h16.74c5.07-.01,9.18-4.12,9.2-9.2h0c0-2.67-1.17-5.2-3.2-6.94Z"/><path class="cls-4" d="m458.86,438.36c-3.49-3.68-9.3-3.85-13-.38h0c-3.68,3.49-3.85,9.3-.38,13l11.81,12.53,13.38-12.62-11.81-12.53Z"/><path class="cls-3" d="m481.51,462.39l-11.48-12.18-13.38,12.62,11.48,12.18c3.49,3.68,9.3,3.85,13,.38h0c3.68-3.49,3.85-9.3.38-13Z"/><path class="cls-10" d="m483.98,468.3c-.22,2.2-1.22,4.24-2.82,5.76h0c-3.7,3.47-9.51,3.3-13-.38l-10.84-11.5-.69.65,11.48,12.18c3.49,3.68,9.3,3.85,13,.38h0c1.94-1.83,2.98-4.42,2.86-7.09Z"/><path class="cls-4" d="m409.86,467.36c-3.49-3.68-9.3-3.85-13-.38h0c-3.68,3.49-3.85,9.3-.38,13l11.81,12.53,13.38-12.62-11.81-12.53Z"/><path class="cls-13" d="m432.51,491.39l-11.48-12.18-13.38,12.62,11.48,12.18c3.49,3.68,9.3,3.85,13,.38h0c3.68-3.49,3.85-9.3.38-13Z"/><path class="cls-10" d="m434.98,497.3c-.22,2.2-1.22,4.24-2.82,5.76h0c-3.7,3.47-9.51,3.3-13-.38l-10.84-11.5-.69.65,11.48,12.18c3.49,3.68,9.3,3.85,13,.38h0c1.94-1.83,2.98-4.42,2.86-7.09Z"/><path class="cls-4" d="m458.86,494.36c-3.49-3.68-9.3-3.85-13-.38h0c-3.68,3.49-3.85,9.3-.38,13l11.81,12.53,13.38-12.62-11.81-12.53Z"/><path class="cls-13" d="m481.51,518.39l-11.48-12.18-13.38,12.62,11.48,12.18c3.49,3.68,9.3,3.85,13,.38h0c3.68-3.49,3.85-9.3.38-13Z"/><path class="cls-10" d="m483.98,524.3c-.22,2.2-1.22,4.24-2.82,5.76h0c-3.7,3.47-9.51,3.3-13-.38l-10.84-11.5-.69.65,11.48,12.18c3.49,3.68,9.3,3.85,13,.38h0c1.94-1.83,2.98-4.42,2.86-7.09Z"/><path class="cls-4" d="m488.75,551.83c3.64-3.54,3.74-9.34.23-13h0c-3.54-3.64-9.34-3.74-13-.23l-12.38,11.96,12.78,13.23,12.38-11.96Z"/><path class="cls-13" d="m465.01,574.76l12.04-11.63-12.78-13.23-12.04,11.63c-3.64,3.54-3.74,9.34-.23,13h0c3.54,3.64,9.34,3.74,13,.23Z"/><path class="cls-10" d="m459.13,577.31c-2.2-.19-4.25-1.17-5.79-2.75h0c-3.51-3.66-3.41-9.47.23-13l11.36-10.98-.66-.68-12.04,11.63c-3.64,3.54-3.74,9.34-.23,13h0c1.86,1.92,4.46,2.93,7.12,2.77Z"/><path class="cls-4" d="m422.75,522.83c3.64-3.54,3.74-9.34.23-13h0c-3.54-3.64-9.34-3.74-13-.23l-12.38,11.96,12.78,13.23,12.38-11.96Z"/><path class="cls-3" d="m399.01,545.76l12.04-11.63-12.78-13.23-12.04,11.63c-3.64,3.54-3.74,9.34-.23,13h0c3.54,3.64,9.34,3.74,13,.23Z"/><path class="cls-10" d="m393.13,548.31c-2.2-.19-4.25-1.17-5.79-2.75h0c-3.51-3.66-3.41-9.47.23-13l11.36-10.98-.66-.68-12.04,11.63c-3.64,3.54-3.74,9.34-.23,13h0c1.86,1.92,4.46,2.93,7.12,2.77Z"/><path class="cls-4" d="m516.75,487.83c3.64-3.54,3.74-9.34.23-13h0c-3.54-3.64-9.34-3.74-13-.23l-12.38,11.96,12.78,13.23,12.38-11.96Z"/><path class="cls-13" d="m493.01,510.76l12.04-11.63-12.78-13.23-12.04,11.63c-3.64,3.54-3.74,9.34-.23,13h0c3.54,3.64,9.34,3.74,13,.23Z"/><path class="cls-10" d="m487.13,513.31c-2.2-.19-4.25-1.17-5.79-2.75h0c-3.51-3.66-3.41-9.47.23-13l11.36-10.98-.66-.68-12.04,11.63c-3.64,3.54-3.74,9.34-.23,13h0c1.86,1.92,4.46,2.93,7.12,2.77Z"/><path class="cls-4" d="m495.86,560.36c-3.49-3.68-9.3-3.85-13-.38h0c-3.68,3.49-3.85,9.3-.38,13l11.81,12.53,13.38-12.62-11.81-12.53Z"/><path class="cls-13" d="m518.51,584.39l-11.48-12.18-13.38,12.62,11.48,12.18c3.49,3.68,9.3,3.85,13,.38h0c3.68-3.49,3.85-9.3.38-13Z"/><path class="cls-10" d="m520.98,590.3c-.22,2.2-1.22,4.24-2.82,5.76h0c-3.7,3.47-9.51,3.3-13-.38l-10.84-11.5-.69.65,11.48,12.18c3.49,3.68,9.3,3.85,13,.38h0c1.94-1.83,2.98-4.42,2.86-7.09Z"/><path class="cls-4" d="m430.86,559.36c-3.49-3.68-9.3-3.85-13-.38h0c-3.68,3.49-3.85,9.3-.38,13l11.81,12.53,13.38-12.62-11.81-12.53Z"/><path class="cls-13" d="m453.51,583.39l-11.48-12.18-13.38,12.62,11.48,12.18c3.49,3.68,9.3,3.85,13,.38h0c3.68-3.49,3.85-9.3.38-13Z"/><path class="cls-10" d="m455.98,589.3c-.22,2.2-1.22,4.24-2.82,5.76h0c-3.7,3.47-9.51,3.3-13-.38l-10.84-11.5-.69.65,11.48,12.18c3.49,3.68,9.3,3.85,13,.38h0c1.94-1.83,2.98-4.42,2.86-7.09Z"/><path class="cls-13" d="m449.16,526.37c0,6.3-4.43,11.74-10.61,13-1.75.35-3.55.35-5.31,0-7.18-1.47-11.81-8.48-10.34-15.65,1.06-5.21,5.13-9.28,10.34-10.34,1.75-.35,3.55-.35,5.31,0,6.18,1.26,10.61,6.69,10.61,13Z"/><path class="cls-10" d="m438.55,513.37v26c-1.75.35-3.55.35-5.31,0v-26c1.75-.35,3.55-.35,5.31,0Z"/><path class="cls-12" d="m455.16,473.37c0,6.3-4.43,11.74-10.61,13-1.75.35-3.55.35-5.31,0-7.18-1.47-11.81-8.48-10.34-15.65,1.06-5.21,5.13-9.28,10.34-10.34,1.75-.35,3.55-.35,5.31,0,6.18,1.26,10.61,6.69,10.61,13Z"/><path class="cls-10" d="m444.55,460.37v26c-1.75.35-3.55.35-5.31,0v-26c1.75-.35,3.55-.35,5.31,0Z"/><path class="cls-3" d="m455.16,549.37c0,6.3-4.43,11.74-10.61,13-1.75.35-3.55.35-5.31,0-7.18-1.47-11.81-8.48-10.34-15.65,1.06-5.21,5.13-9.28,10.34-10.34,1.75-.35,3.55-.35,5.31,0,6.18,1.26,10.61,6.69,10.61,13Z"/><path class="cls-10" d="m444.55,536.37v26c-1.75.35-3.55.35-5.31,0v-26c1.75-.35,3.55-.35,5.31,0Z"/><path class="cls-13" d="m488.16,586.37c0,6.3-4.43,11.74-10.61,13-1.75.35-3.55.35-5.31,0-7.18-1.47-11.81-8.48-10.34-15.65,1.06-5.21,5.13-9.28,10.34-10.34,1.75-.35,3.55-.35,5.31,0,6.18,1.26,10.61,6.69,10.61,13Z"/><path class="cls-10" d="m477.55,573.37v26c-1.75.35-3.55.35-5.31,0v-26c1.75-.35,3.55-.35,5.31,0Z"/><path class="cls-13" d="m517.31,518.29c4.54,4.37,5.37,11.34,1.99,16.66-.96,1.51-2.21,2.8-3.68,3.82-6.04,4.15-14.3,2.62-18.45-3.42-3.01-4.38-3.12-10.14-.27-14.62.96-1.51,2.21-2.8,3.68-3.82,5.19-3.57,12.18-2.99,16.72,1.38Z"/><path class="cls-10" d="m500.59,516.91l18.72,18.04c-.96,1.51-2.21,2.8-3.68,3.82l-18.72-18.04c.96-1.51,2.21-2.8,3.68-3.82Z"/><path class="cls-3" d="m521.31,547.29c4.54,4.37,5.37,11.34,1.99,16.66-.96,1.51-2.21,2.8-3.68,3.82-6.04,4.15-14.3,2.62-18.45-3.42-3.01-4.38-3.12-10.14-.27-14.62.96-1.51,2.21-2.8,3.68-3.82,5.19-3.57,12.18-2.99,16.72,1.38Z"/><path class="cls-10" d="m504.59,545.91l18.72,18.04c-.96,1.51-2.21,2.8-3.68,3.82l-18.72-18.04c.96-1.51,2.21-2.8,3.68-3.82Z"/><path class="cls-13" d="m402.31,554.29c4.54,4.37,5.37,11.34,1.99,16.66-.96,1.51-2.21,2.8-3.68,3.82-6.04,4.15-14.3,2.62-18.45-3.42-3.01-4.38-3.12-10.14-.27-14.62.96-1.51,2.21-2.8,3.68-3.82,5.19-3.57,12.18-2.99,16.72,1.38Z"/><path class="cls-10" d="m385.59,552.91l18.72,18.04c-.96,1.51-2.21,2.8-3.68,3.82l-18.72-18.04c.96-1.51,2.21-2.8,3.68-3.82Z"/><rect class="cls-10" x="354.5" y="316.11" width="5" height="37"/><rect class="cls-10" x="383.5" y="316.11" width="5" height="37"/><rect class="cls-10" x="412.5" y="316.11" width="5" height="37"/><rect class="cls-10" x="441.5" y="316.11" width="5" height="37"/><rect class="cls-10" x="470.5" y="316.11" width="5" height="37"/><rect class="cls-10" x="499.5" y="316.11" width="5" height="37"/><rect class="cls-10" x="528.5" y="316.11" width="5" height="37"/></svg>