<svg width="506" height="314" viewBox="0 0 506 314" fill="none" xmlns="http://www.w3.org/2000/svg">
<path fill-rule="evenodd" clip-rule="evenodd" d="M0.0421667 314H105.417C105.585 288.587 105.396 266.084 105.417 250.928C105.522 167.341 142.291 185.7 142.291 111.449C142.291 79.9025 121.567 62.8 94.8961 62.8C55.4913 62.8 28.083 100.208 65.4005 170.167C77.6499 193.173 52.3288 198.615 25.1313 204.854C1.56017 210.254 0 226.771 0 246.574L0.0421667 314ZM480.869 204.854C453.671 198.615 428.35 193.173 440.6 170.167C477.917 100.208 450.509 62.8 411.104 62.8C384.434 62.8 363.709 79.9025 363.709 111.449C363.709 181.031 399.951 168.053 400.583 251.2C400.752 271.547 400.394 278.644 400.583 314H505.958L506 246.574C506 226.771 504.44 210.254 480.869 204.854ZM379.437 314H126.542L126.5 248.562C126.5 222.228 128.608 196.606 159.98 189.405C195.485 181.262 230.483 173.998 213.637 143.163C163.754 51.81 199.427 0 252.979 0C305.498 0 342.077 49.8841 292.32 143.163C275.981 173.809 309.735 181.094 345.978 189.405C377.392 196.606 379.479 222.249 379.479 248.625L379.437 314Z" fill="white"/>
</svg>
