{
    "asset" : {
        "generator" : "Khronos glTF Blender I/O v3.2.43",
        "version" : "2.0"
    },
    "scene" : 0,
    "scenes" : [
        {
            "name" : "Scene",
            "nodes" : [
                8
            ]
        }
    ],
    "nodes" : [
        {
            "mesh" : 0,
            "name" : "Object_2"
        },
        {
            "mesh" : 1,
            "name" : "Object_3"
        },
        {
            "mesh" : 2,
            "name" : "Object_4"
        },
        {
            "mesh" : 3,
            "name" : "Object_5"
        },
        {
            "mesh" : 4,
            "name" : "Object_6"
        },
        {
            "mesh" : 5,
            "name" : "Object_7"
        },
        {
            "mesh" : 6,
            "name" : "Object_8"
        },
        {
            "children" : [
                0,
                1,
                2,
                3,
                4,
                5,
                6
            ],
            "name" : "Glucose.obj.cleaner.materialmerger.gles"
        },
        {
            "children" : [
                7
            ],
            "name" : "Sketchfab_model",
            "rotation" : [
                -0.7711529731750488,
                -0.3009149432182312,
                -0.18539783358573914,
                0.5295289754867554
            ],
            "translation" : [
                1.998885154724121,
                -0.04845806956291199,
                0
            ]
        }
    ],
    "materials" : [
        {
            "alphaMode" : "BLEND",
            "doubleSided" : true,
            "name" : "k909090",
            "pbrMetallicRoughness" : {}
        },
        {
            "doubleSided" : true,
            "name" : "kff0d0d",
            "pbrMetallicRoughness" : {
                "baseColorFactor" : [
                    1,
                    0.054999999701976776,
                    0.054999999701976776,
                    1
                ],
                "metallicFactor" : 0
            }
        },
        {
            "doubleSided" : true,
            "name" : "kffffff",
            "pbrMetallicRoughness" : {
                "metallicFactor" : 0
            }
        }
    ],
    "meshes" : [
        {
            "name" : "Object_0",
            "primitives" : [
                {
                    "attributes" : {
                        "POSITION" : 0,
                        "NORMAL" : 1
                    },
                    "indices" : 2,
                    "material" : 0
                }
            ]
        },
        {
            "name" : "Object_1",
            "primitives" : [
                {
                    "attributes" : {
                        "POSITION" : 3,
                        "NORMAL" : 4
                    },
                    "indices" : 5,
                    "material" : 0
                }
            ]
        },
        {
            "name" : "Object_2",
            "primitives" : [
                {
                    "attributes" : {
                        "POSITION" : 6,
                        "NORMAL" : 7
                    },
                    "indices" : 8,
                    "material" : 0
                }
            ]
        },
        {
            "name" : "Object_3",
            "primitives" : [
                {
                    "attributes" : {
                        "POSITION" : 9,
                        "NORMAL" : 10
                    },
                    "indices" : 11,
                    "material" : 1
                }
            ]
        },
        {
            "name" : "Object_4",
            "primitives" : [
                {
                    "attributes" : {
                        "POSITION" : 12,
                        "NORMAL" : 13
                    },
                    "indices" : 14,
                    "material" : 1
                }
            ]
        },
        {
            "name" : "Object_5",
            "primitives" : [
                {
                    "attributes" : {
                        "POSITION" : 15,
                        "NORMAL" : 16
                    },
                    "indices" : 17,
                    "material" : 2
                }
            ]
        },
        {
            "name" : "Object_6",
            "primitives" : [
                {
                    "attributes" : {
                        "POSITION" : 18,
                        "NORMAL" : 19
                    },
                    "indices" : 20,
                    "material" : 2
                }
            ]
        }
    ],
    "accessors" : [
        {
            "bufferView" : 0,
            "componentType" : 5126,
            "count" : 3924,
            "max" : [
                1.759700059890747,
                0.4049000144004822,
                1.5647000074386597
            ],
            "min" : [
                -2.80649995803833,
                -0.42549997568130493,
                -1.3984999656677246
            ],
            "type" : "VEC3"
        },
        {
            "bufferView" : 1,
            "componentType" : 5126,
            "count" : 3924,
            "type" : "VEC3"
        },
        {
            "bufferView" : 2,
            "componentType" : 5123,
            "count" : 23256,
            "type" : "SCALAR"
        },
        {
            "bufferView" : 3,
            "componentType" : 5126,
            "count" : 6924,
            "max" : [
                1.759700059890747,
                0.7943952679634094,
                1.8042000532150269
            ],
            "min" : [
                -3.0460000038146973,
                -0.7913535833358765,
                -1.6380000114440918
            ],
            "type" : "VEC3"
        },
        {
            "bufferView" : 4,
            "componentType" : 5126,
            "count" : 6924,
            "type" : "VEC3"
        },
        {
            "bufferView" : 5,
            "componentType" : 5123,
            "count" : 39912,
            "type" : "SCALAR"
        },
        {
            "bufferView" : 6,
            "componentType" : 5126,
            "count" : 1434,
            "max" : [
                2.3064255714416504,
                0.8136622309684753,
                2.1080338954925537
            ],
            "min" : [
                -3.143752098083496,
                -0.8262959718704224,
                -1.9282490015029907
            ],
            "type" : "VEC3"
        },
        {
            "bufferView" : 7,
            "componentType" : 5126,
            "count" : 1434,
            "type" : "VEC3"
        },
        {
            "bufferView" : 8,
            "componentType" : 5123,
            "count" : 6216,
            "type" : "SCALAR"
        },
        {
            "bufferView" : 9,
            "componentType" : 5126,
            "count" : 5850,
            "max" : [
                3.210399866104126,
                0.8113999962806702,
                3.004699945449829
            ],
            "min" : [
                -3.7236998081207275,
                -0.6211000084877014,
                -2.599799871444702
            ],
            "type" : "VEC3"
        },
        {
            "bufferView" : 10,
            "componentType" : 5126,
            "count" : 5850,
            "type" : "VEC3"
        },
        {
            "bufferView" : 11,
            "componentType" : 5123,
            "count" : 34776,
            "type" : "SCALAR"
        },
        {
            "bufferView" : 12,
            "componentType" : 5126,
            "count" : 2718,
            "max" : [
                3.0091800689697266,
                0.9655165672302246,
                2.8029558658599854
            ],
            "min" : [
                -3.50319504737854,
                -0.819100022315979,
                -2.797799825668335
            ],
            "type" : "VEC3"
        },
        {
            "bufferView" : 13,
            "componentType" : 5126,
            "count" : 2718,
            "type" : "VEC3"
        },
        {
            "bufferView" : 14,
            "componentType" : 5123,
            "count" : 13896,
            "type" : "SCALAR"
        },
        {
            "bufferView" : 15,
            "componentType" : 5126,
            "count" : 9630,
            "max" : [
                2.9695000648498535,
                1.6756999492645264,
                2.7562999725341797
            ],
            "min" : [
                -3.40939998626709,
                -1.5199999809265137,
                -3.1886000633239746
            ],
            "type" : "VEC3"
        },
        {
            "bufferView" : 16,
            "componentType" : 5126,
            "count" : 9630,
            "type" : "VEC3"
        },
        {
            "bufferView" : 17,
            "componentType" : 5123,
            "count" : 57600,
            "type" : "SCALAR"
        },
        {
            "bufferView" : 18,
            "componentType" : 5126,
            "count" : 6642,
            "max" : [
                2.936774730682373,
                1.597000002861023,
                2.727391481399536
            ],
            "min" : [
                -3.28930926322937,
                -1.621500015258789,
                -3.003655433654785
            ],
            "type" : "VEC3"
        },
        {
            "bufferView" : 19,
            "componentType" : 5126,
            "count" : 6642,
            "type" : "VEC3"
        },
        {
            "bufferView" : 20,
            "componentType" : 5123,
            "count" : 37152,
            "type" : "SCALAR"
        }
    ],
    "bufferViews" : [
        {
            "buffer" : 0,
            "byteLength" : 47088,
            "byteOffset" : 0
        },
        {
            "buffer" : 0,
            "byteLength" : 47088,
            "byteOffset" : 47088
        },
        {
            "buffer" : 0,
            "byteLength" : 46512,
            "byteOffset" : 94176
        },
        {
            "buffer" : 0,
            "byteLength" : 83088,
            "byteOffset" : 140688
        },
        {
            "buffer" : 0,
            "byteLength" : 83088,
            "byteOffset" : 223776
        },
        {
            "buffer" : 0,
            "byteLength" : 79824,
            "byteOffset" : 306864
        },
        {
            "buffer" : 0,
            "byteLength" : 17208,
            "byteOffset" : 386688
        },
        {
            "buffer" : 0,
            "byteLength" : 17208,
            "byteOffset" : 403896
        },
        {
            "buffer" : 0,
            "byteLength" : 12432,
            "byteOffset" : 421104
        },
        {
            "buffer" : 0,
            "byteLength" : 70200,
            "byteOffset" : 433536
        },
        {
            "buffer" : 0,
            "byteLength" : 70200,
            "byteOffset" : 503736
        },
        {
            "buffer" : 0,
            "byteLength" : 69552,
            "byteOffset" : 573936
        },
        {
            "buffer" : 0,
            "byteLength" : 32616,
            "byteOffset" : 643488
        },
        {
            "buffer" : 0,
            "byteLength" : 32616,
            "byteOffset" : 676104
        },
        {
            "buffer" : 0,
            "byteLength" : 27792,
            "byteOffset" : 708720
        },
        {
            "buffer" : 0,
            "byteLength" : 115560,
            "byteOffset" : 736512
        },
        {
            "buffer" : 0,
            "byteLength" : 115560,
            "byteOffset" : 852072
        },
        {
            "buffer" : 0,
            "byteLength" : 115200,
            "byteOffset" : 967632
        },
        {
            "buffer" : 0,
            "byteLength" : 79704,
            "byteOffset" : 1082832
        },
        {
            "buffer" : 0,
            "byteLength" : 79704,
            "byteOffset" : 1162536
        },
        {
            "buffer" : 0,
            "byteLength" : 74304,
            "byteOffset" : 1242240
        }
    ],
    "buffers" : [
        {
            "byteLength" : 1316544,
            "uri" : "data:application/octet-stream;base64,"
        }
    ]
}
